<svg xmlns="http://www.w3.org/2000/svg" width="1592" height="1592"><path fill="#fefefe" d="M0 0h1592v1592H0z"/><path fill="#ffb701" d="M0 0h1592v1592H0zm658.813 64.875-2.606.507q-2.722.533-5.443 1.072-2.78.549-5.563 1.084c-14.828 2.855-29.309 6.563-43.822 10.692-3.559 1.01-7.084 1.952-10.711 2.672-7.137 1.515-14.02 4.125-20.918 6.473a5981 5981 0 0 1-10.678 3.608c-5.435 1.828-10.905 3.524-16.402 5.157-3.142 1.012-6.045 2.323-9.025 3.727-4.36 1.867-8.86 3.348-13.355 4.851-4.33 1.479-8.34 3.24-12.404 5.34-2.703 1.35-5.492 2.395-8.324 3.442-7.226 2.732-14.066 5.582-20.723 9.52-2.023 1.078-4.058 1.868-6.206 2.671-6.667 2.633-12.974 5.93-19.32 9.246l-1.917.998C405.676 159.748 362.762 188.204 323 221a5652 5652 0 0 1-6 4.938l-2.687 2.214C312 230 312 230 309 232v2l-1.802.825c-2.142 1.145-3.618 2.301-5.37 3.968l-1.765 1.662-1.813 1.732c-3.59 3.405-7.185 6.777-10.942 9.998-4.497 3.925-8.723 8.086-12.937 12.311l-2.404 2.401q-2.498 2.498-4.994 5a4630 4630 0 0 1-7.596 7.59l-4.88 4.884-2.268 2.26c-4.077 4.096-7.99 8.279-11.759 12.66-2.585 3.005-5.286 5.907-7.966 8.826-1.712 1.742-1.712 1.742-1.504 3.883l-3 1a114 114 0 0 0-4.875 6.063q-1.484 1.935-2.973 3.867l-1.567 2.038c-2.05 2.63-4.168 5.2-6.29 7.772-7.818 9.476-15.11 19.3-22.295 29.26l-1.542 2.127C168.481 391.75 150.951 420.896 135 451l-2.855 5.34c-3.928 7.368-7.772 14.725-11.13 22.375-.984 2.215-2.041 4.374-3.14 6.535-3.336 6.606-5.92 13.44-8.496 20.371a88 88 0 0 1-3.356 7.274c-2.042 4.009-3.538 8.093-4.96 12.355-1.626 4.845-3.391 9.57-5.407 14.27-2.87 6.808-5.21 13.755-7.513 20.77a1907 1907 0 0 1-2.125 6.423c-5.52 16.449-5.52 16.449-9.893 33.225a313 313 0 0 1-4.24 16.627C66.73 634.77 63.003 653.325 60 672l-.465 2.793C45.213 761.071 43.8 853.638 63.384 939.212c.874 3.955 1.627 7.931 2.389 11.91 5.568 28.93 13.6 57.181 22.852 85.128l.697 2.115c2.586 7.827 5.36 15.51 8.606 23.093 1.296 3.073 2.389 6.192 3.447 9.354 2.264 6.462 5.013 12.554 7.977 18.715 1.642 3.461 3.154 6.946 4.648 10.473a879 879 0 0 0 1.875 4.188 174 174 0 0 1 3.14 7.386c3.52 8.887 7.95 17.207 12.474 25.611 1.628 3.033 3.24 6.074 4.85 9.116 7.167 13.484 14.615 26.721 22.661 39.699l1.475 2.392c9.287 15.024 19.082 29.719 29.568 43.936 1.48 2.02 2.938 4.05 4.383 6.094 4.98 7.049 10.112 13.89 15.574 20.578l3.75 4.75c4.752 5.94 9.724 11.684 14.694 17.44a796 796 0 0 1 4.501 5.29c11.924 14.098 24.7 27.334 37.77 40.366a3428 3428 0 0 1 6.535 6.54l4.242 4.239 1.93 1.935c3.81 3.792 7.736 7.4 11.809 10.909 3.297 2.853 6.47 5.844 9.667 8.808 1.907 1.934 1.907 1.934 4.102 1.723l1 3a114 114 0 0 0 6.063 4.875q1.935 1.484 3.867 2.973l2.038 1.567c2.63 2.05 5.2 4.168 7.772 6.29 9.476 7.818 19.3 15.11 29.26 22.295l2.127 1.542c27.622 19.977 56.769 37.507 86.873 53.458l5.34 2.855c7.368 3.928 14.725 7.772 22.375 11.13 2.215.984 4.374 2.041 6.535 3.14 6.606 3.336 13.44 5.92 20.371 8.496a88 88 0 0 1 7.274 3.356c4.009 2.042 8.093 3.538 12.355 4.96 4.845 1.626 9.57 3.391 14.27 5.407 6.808 2.87 13.755 5.21 20.77 7.513q3.214 1.057 6.423 2.125c16.449 5.52 16.449 5.52 33.225 9.893a313 313 0 0 1 16.627 4.24c18.205 5.155 36.76 8.882 55.435 11.885l2.793.465c86.278 14.322 178.845 15.735 264.419-3.849 3.955-.874 7.931-1.627 11.91-2.389 28.93-5.568 57.181-13.6 85.128-22.852l2.115-.697c7.827-2.586 15.51-5.36 23.093-8.606 3.073-1.296 6.192-2.389 9.354-3.447 6.462-2.264 12.554-5.013 18.715-7.977 3.461-1.642 6.946-3.154 10.473-4.648a879 879 0 0 0 4.188-1.875 174 174 0 0 1 7.386-3.14c8.887-3.52 17.207-7.95 25.611-12.474 3.033-1.628 6.074-3.24 9.116-4.85 13.484-7.167 26.721-14.615 39.699-22.661l2.392-1.475c11.325-7 22.395-14.332 33.323-21.936q2.238-1.556 4.48-3.104c11.252-7.769 22.085-16 32.805-24.485l2.898-2.277c6.252-4.947 12.331-10.095 18.394-15.27q2.537-2.155 5.087-4.297c14.526-12.263 28.126-25.49 41.543-38.947q3.252-3.258 6.514-6.508l4.224-4.228 1.926-1.92c4.334-4.357 8.416-8.887 12.414-13.553l1.558-1.809c1.896-2.201 3.783-4.41 5.67-6.618 2.61-3.053 5.226-6.1 7.862-9.132 6.124-7.058 11.997-14.241 17.61-21.712q2.06-2.738 4.132-5.467c27.161-35.93 50.427-73.65 71.626-113.382q2.017-3.765 4.065-7.513c3.225-5.919 6.238-11.79 8.618-18.105 1.454-3.827 3.178-7.531 4.859-11.262l1-2.281c1.548-3.532 3.132-6.999 4.938-10.407 2.397-4.701 4.023-9.663 5.718-14.652a91 91 0 0 1 3.133-7.512c3.295-7.296 5.595-14.987 8.086-22.585l1.527-4.624q1.152-3.477 2.294-6.958a905 905 0 0 1 3.85-11.503c3.61-10.552 6.66-21.167 9.391-31.978l.641-2.511c4.074-15.993 7.548-32.081 10.691-48.281a439 439 0 0 1 1.481-7.205c2.406-11.336 3.86-22.755 5.25-34.253l.393-3.25c9.156-76.456 8.539-154.43-6.268-230.187l-.507-2.606a2322 2322 0 0 0-1.072-5.443q-.549-2.78-1.084-5.563c-2.855-14.828-6.563-29.309-10.692-43.822-1.01-3.559-1.952-7.084-2.672-10.711-1.515-7.137-4.125-14.02-6.473-20.918a5981 5981 0 0 1-3.608-10.678c-1.828-5.435-3.524-10.905-5.157-16.402-1.012-3.142-2.323-6.045-3.727-9.025-1.867-4.36-3.348-8.86-4.851-13.355-1.479-4.33-3.24-8.34-5.34-12.404-1.35-2.703-2.395-5.492-3.442-8.324-2.732-7.226-5.582-14.066-9.52-20.723-1.078-2.023-1.868-4.058-2.671-6.206-2.633-6.667-5.93-12.974-9.246-19.32l-.998-1.917c-23.27-44.678-50.917-86.883-82.928-125.79-8.956-10.921-8.956-10.921-11.739-14.891L1360 312h-2l-.825-1.802c-1.145-2.142-2.301-3.618-3.968-5.37l-1.662-1.765-1.733-1.813c-3.408-3.595-6.785-7.195-10.01-10.956-3.854-4.414-7.932-8.568-12.08-12.704l-2.333-2.337a4557 4557 0 0 0-4.858-4.853 4369 4369 0 0 1-7.373-7.379l-4.748-4.744-2.194-2.2c-4.58-4.558-9.304-8.88-14.216-13.077l-3.352-2.887-5.075-4.341c-3.053-2.61-6.1-5.226-9.132-7.862-7.058-6.124-14.241-11.997-21.712-17.61a1680 1680 0 0 1-5.467-4.132c-35.93-27.161-73.65-50.427-113.382-71.626q-3.765-2.017-7.513-4.065c-5.919-3.225-11.79-6.238-18.105-8.618-3.827-1.454-7.531-3.178-11.262-4.859l-2.281-1c-3.532-1.548-6.999-3.132-10.407-4.937-4.701-2.398-9.663-4.024-14.652-5.72a91 91 0 0 1-7.512-3.132c-7.296-3.295-14.987-5.595-22.585-8.086l-4.624-1.527q-3.477-1.151-6.958-2.294a905 905 0 0 1-11.503-3.85c-10.552-3.61-21.167-6.66-31.978-9.391l-2.511-.641c-15.993-4.074-32.081-7.548-48.281-10.691a439 439 0 0 1-7.205-1.481c-11.336-2.406-22.755-3.86-34.253-5.25l-3.25-.393c-76.456-9.156-154.43-8.539-230.187 6.268"/><path fill="#2c2a50" d="M795 93h2c2.654 7.127 5.124 14.24 7.188 21.563 2.293 8.087 5.039 16.004 7.812 23.937 2.931 8.387 5.77 16.757 8.168 25.313 1.704 5.981 3.759 11.825 5.832 17.687 2.504 7.08 4.828 14.137 6.853 21.368 2.662 9.25 5.948 18.31 9.138 27.388a359 359 0 0 1 6.992 22.225c1.653 5.72 3.569 11.352 5.477 16.991 1.307 3.866 2.6 7.736 3.895 11.606l.856 2.556a5613 5613 0 0 1 10.654 32.278q1.124 3.43 2.252 6.861 1.601 4.875 3.196 9.75l.948 2.882c2.444 7.493 4.57 15 6.739 22.595l281 1c-3.755 3.755-6.913 6.517-11.187 9.5l-3.75 2.64-2 1.405a1173 1173 0 0 0-10.75 7.705l-2.286 1.65c-6.336 4.583-12.63 9.22-18.918 13.866-9.06 6.686-18.2 13.261-27.338 19.838a2542 2542 0 0 0-25.521 18.584 1334 1334 0 0 1-19.68 14.269c-11.235 7.991-22.371 16.117-33.461 24.31-9.06 6.685-18.2 13.26-27.338 19.837a3149 3149 0 0 0-30.466 22.205l-2.161 1.593a344 344 0 0 0-4.405 3.34l-2.169 1.668-1.937 1.508C939 524 939 524 937 524c2.38 7.154 4.765 14.306 7.168 21.453 9.918 29.498 9.918 29.498 13.462 41.797 2.96 10.059 6.506 19.937 9.97 29.83 2.761 7.92 5.315 15.861 7.636 23.922 1.73 5.975 3.72 11.833 5.827 17.686 2.126 6.003 4.21 11.972 5.875 18.125 1.843 6.781 4.172 13.37 6.5 20 2.7 7.695 5.275 15.359 7.468 23.214 2.432 8.479 5.438 16.776 8.335 25.104 3.165 9.104 6.163 18.215 8.767 27.498 1.212 4.117 2.69 8.094 4.293 12.074.774 2.543.748 4.654.699 7.297a465 465 0 0 1-17.562-12.125l-2.345-1.697c-5.827-4.228-11.59-8.535-17.338-12.87-5.293-3.984-10.662-7.85-16.064-11.683-10.41-7.389-20.73-14.904-31.014-22.465-9.338-6.858-18.75-13.614-28.154-20.383q-12.763-9.196-25.415-18.544c-7.585-5.597-15.224-11.117-22.874-16.624-4.5-3.24-8.992-6.49-13.486-9.736a8235 8235 0 0 0-11.213-8.088C823.93 647.985 810.4 638.081 797 628c-2.644 1.266-5.049 2.637-7.441 4.328l-1.988 1.402-2.134 1.52-2.256 1.6c-6.392 4.55-12.712 9.197-19.019 13.864-9.072 6.71-18.232 13.299-27.391 19.89a2761 2761 0 0 0-27.947 20.376 1017 1017 0 0 1-15.486 11.2c-4.904 3.488-9.748 7.055-14.588 10.633a2530 2530 0 0 1-25.516 18.578c-3.748 2.7-7.49 5.404-11.234 8.109a9445 9445 0 0 1-13.465 9.715 2563 2563 0 0 0-25.405 18.537 1786 1786 0 0 1-18.993 13.81l-2.086 1.5-2.017 1.45c-2.835 2.075-5.611 4.225-8.38 6.386C570 792 570 792 568 792c1.504-5.993 3.246-11.823 5.375-17.625 1.8-4.934 3.389-9.884 4.813-14.937 2.292-8.088 5.04-16.004 7.812-23.938 3.989-11.392 3.989-11.392 7.5-22.937 2.094-7.437 4.533-14.742 7-22.063 4.1-12.165 8.02-24.38 11.875-36.625a2327 2327 0 0 1 14.58-44.752 931 931 0 0 0 7.06-21.762c2.611-8.415 5.341-16.792 8.069-25.17q1.374-4.228 2.744-8.457c3.24-9.97 6.562-19.892 10.172-29.734l-1.824-.88c-2.97-1.529-5.605-3.475-8.301-5.433l-1.84-1.325q-1.98-1.427-3.956-2.859-3.163-2.285-6.333-4.562a2510 2510 0 0 1-25.637-18.707C598.786 484.09 590.396 478.042 582 472c-9.285-6.682-18.55-13.389-27.75-20.187a1325 1325 0 0 0-19.664-14.258c-10.37-7.375-20.661-14.858-30.911-22.397a1879 1879 0 0 0-14.425-10.47 1914 1914 0 0 1-19-13.875c-5.41-3.998-10.832-7.975-16.312-11.875l-1.633-1.163q-3.817-2.718-7.635-5.43-3.745-2.668-7.483-5.345l-2.412-1.711-2.232-1.601-2-1.426C429 361 429 361 428 359h281l3-12c.907-3.012 1.83-5.999 2.813-8.984l.772-2.38q.8-2.456 1.603-4.91c.815-2.484 1.622-4.97 2.43-7.456q.784-2.41 1.57-4.817l.72-2.213a254 254 0 0 1 3.68-10.5c1.01-2.674 1.964-5.317 2.807-8.045l.697-2.24.72-2.33a1016 1016 0 0 1 6.313-19.562l.763-2.281q1.588-4.743 3.202-9.477c1.909-5.628 3.642-11.283 5.285-16.993 2.323-8.046 5.072-15.902 7.902-23.782a423 423 0 0 0 8.035-24.967c2.213-7.662 4.702-15.215 7.247-22.771 3.805-11.316 7.471-22.675 11.14-34.035Q784.274 125.104 789 111l1.8-5.402z"/><path fill="#fefefe" d="M1591 819h1v773H819v-1l2.036-.012c34.54-.358 69.559-3.516 103.57-9.565 2.19-.387 4.384-.745 6.582-1.091 39.789-6.513 79.18-17.076 117.468-29.547l2.208-.718c4.761-1.569 9.45-3.285 14.136-5.067q2.592-.942 5.188-1.875c17.695-6.308 17.695-6.308 34.75-14.125 4.391-2.269 8.99-3.94 13.62-5.656 8.87-3.464 17.257-7.75 25.692-12.157l3.45-1.79c6.994-3.635 6.994-3.635 13.915-7.406l3.494-1.94 3.14-1.772C1171 1497 1171 1497 1175 1497v-2l1.607-.848c14.862-7.879 29.23-16.414 43.486-25.337a1104 1104 0 0 1 7.723-4.776c6.593-4.053 13.022-8.23 19.23-12.86 2.957-2.18 5.95-4.296 8.96-6.402 14.192-9.936 27.884-20.372 41.27-31.368a522 522 0 0 1 6.849-5.472c10.097-8.064 19.755-16.629 29.218-25.423q1.801-1.642 3.637-3.249c7.963-7.015 15.425-14.519 22.916-22.03q3.441-3.449 6.891-6.885 2.223-2.223 4.443-4.448l2.05-2.043c3.894-3.913 7.61-7.93 11.212-12.113 2.075-2.402 4.23-4.727 6.383-7.059 4.921-5.402 9.54-10.999 14.125-16.687q1.497-1.828 2.996-3.652c7.332-8.94 14.448-18.024 21.418-27.25q2.336-3.087 4.684-6.164c6.924-9.12 13.499-18.441 19.902-27.934l2.043-3.004c22.054-32.694 40.81-67.243 58.264-102.562 1.98-4.005 3.988-7.995 6.005-11.98 1.964-3.924 3.747-7.827 5.25-11.954a380 380 0 0 1 6.13-15.355 757 757 0 0 0 4.266-10.542q1.456-3.63 2.937-7.251c20.39-50.09 35.3-104.252 42.751-157.877a594 594 0 0 1 1.276-8.366c4.858-31.494 7.664-63.246 8.078-95.109M0 819h1l.12 3.328c1.27 34.26 3.682 68.254 9.44 102.084.386 2.272.753 4.546 1.112 6.822 6.55 39.775 17.074 79.14 29.543 117.422l.718 2.208c2.371 7.198 5.087 14.24 7.942 21.261a329 329 0 0 1 5.75 15.313c1.515 4.305 3.135 8.346 5.273 12.37 2.645 5.26 4.81 10.772 7.102 16.192 3.628 8.532 7.399 16.955 11.527 25.258l1.29 2.599a4161 4161 0 0 0 5.546 11.121c7.135 14.262 14.485 28.31 22.637 42.022l1.556 2.642c6.25 10.605 12.676 21.076 19.444 31.358l1.162 1.773c9.458 14.422 19.371 28.52 29.838 42.227l2.32 3.063c6.219 8.175 12.671 16.152 19.179 24.1a1154 1154 0 0 1 4.013 4.946 352 352 0 0 0 13.383 15.57 336 336 0 0 1 5.417 6.133c9.792 11.2 20.15 21.81 30.68 32.31q3.407 3.402 6.805 6.812l4.406 4.402 2.015 2.02a229 229 0 0 0 12.054 11.154c2.219 1.913 4.378 3.888 6.54 5.865 4.264 3.848 8.66 7.488 13.125 11.098 4.271 3.524 8.435 7.17 12.585 10.835 4.334 3.798 8.84 7.276 13.478 10.692q1.826 1.374 3.648 2.754c15.107 11.397 30.396 22.428 46.209 32.826a548 548 0 0 1 6.256 4.217c6.733 4.583 13.426 8.868 20.887 12.203v2l5 1v2l5 1v2l2.188.813c2.812 1.187 2.812 1.187 5.375 2.75 2.218 1.308 3.928 1.972 6.437 2.437v2l9 3v2l2.591.81c3.457 1.207 6.656 2.645 9.952 4.237l1.846.89q1.926.93 3.85 1.866 2.886 1.401 5.779 2.79a397 397 0 0 1 19.618 10.138c4.796 2.574 9.842 4.476 14.905 6.463 9.494 3.724 9.494 3.724 13.522 5.869 4.64 2.441 9.605 3.995 14.546 5.714 3.45 1.244 6.747 2.672 10.074 4.206 37.607 16.51 79.293 26.42 119.317 35.017l3.128.68c10.033 2.162 20.073 3.865 30.242 5.247 5.305.722 10.557 1.58 15.817 2.573 29.88 5.466 60.52 6.49 90.813 7.5v1H0zM819 0h773v773h-1l-.152-3.475c-1.78-44.48-1.78-44.48-7.608-88.567-.943-5.166-1.774-10.343-2.571-15.534-7.02-45.393-18.675-89.563-33.544-132.986l-1.045-3.06c-2.028-5.788-4.369-11.338-6.955-16.898-1.398-3.082-2.538-6.214-3.625-9.418a258 258 0 0 0-6.246-16.113 398 398 0 0 1-2.54-6.117c-2.568-6.384-2.568-6.384-5.776-12.457-1.523-2.652-2.572-4.921-3.626-7.75-2.12-5.494-4.878-10.563-7.673-15.734-3.381-6.3-6.465-12.715-9.456-19.207a167 167 0 0 0-7.239-13.836C1492 410 1492 410 1492 408h-2l-1.074-2.324c-5.474-11.41-12.145-22.005-18.926-32.676l-1.34-2.114c-2.525-3.98-5.082-7.94-7.66-11.886l-1.836-2.816c-9.52-14.441-19.452-28.602-30.164-42.184q-1.846-2.374-3.687-4.75l-1.688-2.16a448 448 0 0 1-3.187-4.149c-4.11-5.384-8.466-10.523-12.894-15.645a396 396 0 0 1-9.044-10.858c-4.696-5.786-9.75-11.203-14.842-16.636a232 232 0 0 1-3.455-3.844c-6.866-7.788-14.192-15.098-21.542-22.427a3573 3573 0 0 1-6.667-6.674l-4.31-4.306-1.977-1.983a223 223 0 0 0-11.91-11.01c-2.773-2.404-5.434-4.923-8.11-7.433-5.702-5.299-11.612-10.257-17.687-15.125q-1.823-1.492-3.645-2.988c-8.941-7.337-18.028-14.454-27.257-21.426-2.058-1.556-4.112-3.12-6.164-4.684-9.12-6.924-18.441-13.499-27.934-19.902l-3.004-2.043c-32.694-22.054-67.243-40.81-102.562-58.264-4.005-1.98-7.995-3.988-11.98-6.005-3.924-1.964-7.827-3.747-11.954-5.25a380 380 0 0 1-15.355-6.13 757 757 0 0 0-10.542-4.266q-3.63-1.456-7.251-2.937c-50.074-20.384-104.218-35.29-157.825-42.747-2.95-.418-5.894-.867-8.84-1.315C882.168 4.301 850.816 2.246 819 1zM0 0h773v1l-3.475.152c-44.48 1.78-44.48 1.78-88.567 7.608-5.166.943-10.343 1.774-15.534 2.571-45.393 7.02-89.563 18.675-132.986 33.544l-3.06 1.045c-5.788 2.028-11.338 4.369-16.898 6.955-3.082 1.398-6.214 2.538-9.418 3.625a258 258 0 0 0-16.113 6.246q-3.048 1.295-6.117 2.54c-6.384 2.568-6.384 2.568-12.457 5.776-2.652 1.523-4.921 2.572-7.75 3.626-5.501 2.124-10.576 4.885-15.754 7.684-5.357 2.876-10.792 5.512-16.308 8.066-39.74 18.539-78.409 44.079-112.818 71.196a760 760 0 0 1-6.046 4.67c-8.38 6.444-16.57 13.031-24.543 19.973-2.807 2.44-5.687 4.777-8.594 7.098-5.472 4.419-10.553 9.225-15.613 14.105l-1.86 1.774c-.547.53-1.095 1.058-1.66 1.604C256 212 256 212 254 212v2c-1.477 1.459-1.477 1.459-3.515 3.149-4.28 3.642-8.273 7.494-12.239 11.472l-2.135 2.132a3794 3794 0 0 0-4.43 4.435 3631 3631 0 0 1-6.726 6.72l-4.334 4.338-2.002 1.996a227 227 0 0 0-11.106 12.007c-2.077 2.404-4.233 4.73-6.388 7.063-4.043 4.433-7.868 8.991-11.633 13.66-3.509 4.263-7.145 8.412-10.8 12.55-3.798 4.335-7.276 8.84-10.692 13.478a1616 1616 0 0 1-2.754 3.648c-18.946 25.113-36.41 50.991-52.684 77.914l-1.466 2.414c-3.324 5.54-6.282 11.21-9.096 17.024h-2l-.68 2.383c-1.73 4.741-4.063 9.05-6.445 13.492q-1.493 2.817-2.984 5.637l-1.487 2.81C85.167 438.496 82.095 444.754 79 451l-2.812 5.563C74.309 460.319 72.63 464.128 71 468q-1.216 2.625-2.437 5.25a129 129 0 0 0-4.5 11.125c-1.46 4.153-3.173 8.087-5.063 12.063-2.389 5.065-4.272 10.11-5.95 15.447-.977 2.897-2.095 5.65-3.316 8.45-3.202 7.614-5.827 15.391-8.422 23.227l-.782 2.357C31.045 574.573 23.337 603.495 17 633l-.68 3.128c-2.162 10.033-3.865 20.073-5.247 30.242A313 313 0 0 1 8.5 682.187C3.034 712.068 2.01 742.708 1 773H0z"/><path fill="#ffb701" d="M313.8 831.823q2.167-.01 4.332-.031c8.52-.077 16.517.508 24.868 2.208l3.594.676c15.83 3.468 29.725 9.896 39.406 23.324 5.063 8.773 6.328 16.343 6.25 26.375l.023 3c-.041 15.773-5.541 28.662-16.335 40.187C369.208 934.064 357.772 943 348 943c.69 3.19.69 3.19 3.477 4.395l3.148 1.417C387.191 964.615 400.481 1017.14 412 1049l1 4h-50l-6.437-18.188c-10.348-35.365-10.348-35.365-32.125-62.937l-2.317-1.445c-9.377-4.296-18.604-4.932-28.808-5.118l-3.897-.103q-4.708-.123-9.416-.209l.038 1.821c.596 28.732 1.094 57.44.962 86.179h-46c0-22.455 0-22.455.35-33.39.73-23.633.805-47.257.78-70.9q-.006-8.22.004-16.44c.02-23.187-.124-46.354-.785-69.532A863 863 0 0 1 235 833c58.777-1.096 58.777-1.096 78.8-1.177M486 832h47l.063 18.563.027 5.693c.024 8.863-.137 17.685-.582 26.537-.667 13.553-.695 27.104-.693 40.67q0 4.297-.02 8.596c-1.343 43.245-1.343 43.245 16.69 80.898 12.522 10.17 26.973 11.369 42.515 10.043 9.699-1.684 18.565-6.415 24.703-14.145 15.59-23.738 12.73-55.506 12.561-82.57-.019-3.603-.023-7.205-.027-10.808-.02-17.977-.171-35.936-.894-53.9-.387-9.886-.343-19.652-.343-29.577h45c.11 29.873.018 59.736-.406 89.606l-.091 6.755c-.557 41.681-.557 41.681-3.378 56.077l-.488 2.693c-1.713 9.103-4.142 17.617-8.387 25.869l-1.058 2.08c-2.942 5.663-6.254 10.89-10.192 15.92l-1.535 2.066c-9.523 11.957-23.817 18.358-38.09 22.684l-2.099.64c-23.668 6.815-55.264 4.46-77.012-7.331-18.383-10.431-28.7-25.152-35.264-45.059l-1.086-3.2c-8.503-28.035-6.453-58.941-6.584-87.87-.03-5.91-.076-11.818-.121-17.727A7992 7992 0 0 1 486 832M899 833a694 694 0 0 1-2.191 14.465l-.332 2.055-1.04 6.418-.708 4.384L893 871l-2.044-.58c-15.82-4.41-31.183-6.79-47.644-6.857l-3.757-.03c-10.9.101-21.864 1.326-30.555 8.467-4.403 4.855-5.371 7.84-5.27 14.273.61 6.16 3.11 10.977 7.52 15.29 8.383 6.633 18.682 10.56 28.414 14.777l2.088.906a1257 1257 0 0 0 10.45 4.479c12.53 5.344 24.304 11.467 34.798 20.275l1.82 1.383c10.897 8.55 18.97 22.714 20.938 36.406 1.485 19.693-.078 37.493-12.535 53.676-6.772 7.723-14.938 12.377-24.223 16.535l-3.418 1.54c-31.73 12.94-81.873 12.584-113.582-.54.502-8.619 2.111-16.79 4.063-25.187l.853-3.752q1.032-4.533 2.084-9.061l2.182.601c5.05 1.386 10.094 2.765 15.193 3.962l2.898.69c10.765 2.156 21.054 3.069 32.002 3.008 2.288-.011 4.576 0 6.864.012 12.906.014 28.237-.105 38.69-8.793 4.426-5.024 4.516-10.242 4.456-16.66-.643-6.365-4.155-11.108-8.285-15.82-12.413-9.814-27.74-15.798-41.99-22.381C792.365 947.156 771.868 935.213 762 911c-4.587-13.694-4.02-32.88 2-46a79.6 79.6 0 0 1 6-10l1.262-1.855c11.924-15.65 33.273-22.112 51.83-24.742 25.092-2.586 51.344-.986 75.908 4.597M1205 832h53l8 21c2.056 4.685 4.11 9.343 6.273 13.976 1.623 3.48 3.22 6.974 4.82 10.465l.985 2.145c3.46 7.557 6.8 15.165 10.11 22.789l.812 1.86c11.477 26.315 11.477 26.315 11 37.765h3l.191-1.738c2.656-18.422 12-35.607 19.809-52.262 5.368-11.497 10.72-22.993 15.5-34.75l.952-2.306c2.51-6.308 3.86-12.191 5.548-18.944h47c-.839 5.872-1.882 9.455-4.625 14.438l-1.183 2.189c-5.322 9.663-11.301 18.938-17.212 28.247-3.86 6.093-7.674 12.216-11.49 18.337-2.935 4.709-5.88 9.409-8.865 14.086-20.713 30.784-20.713 30.784-29.754 65.87l-.01 3.132.006 3.392-.003 3.556q0 3.749.006 7.497c.005 3.724 0 7.448-.007 11.172-.004 16.387.446 32.711 1.137 49.084h-48l.5-14.062c.427-13.897.664-27.795.732-41.698q.018-3.091.051-6.184c.187-15.757.187-15.757-3.283-31.056l-1.184-3.793c-9.863-26.702-24.304-51.326-38.816-75.707-5.345-8.98-10.646-17.979-15.812-27.062l-1.76-3.043-1.635-2.899-1.421-2.494c-1.9-4.159-3.058-8.622-4.372-13.002"/><path fill="#ffb700" d="M977 832h173c0 30 0 30-1 37-13.307.217-26.583-.44-39.875-1l-7.035-.29q-8.545-.35-17.09-.71.164 24.86.34 49.72.082 11.553.157 23.106a31323 31323 0 0 0 .203 28.997c.21 28.066.696 56.116 1.3 84.177h-47c-.094-13.778.06-27.523.4-41.295.694-28.543.916-57.088 1.132-85.637q.071-9.043.145-18.087.168-20.49.323-40.981c-1.827.09-1.827.09-3.69.184q-6.95.342-13.9.67-2.976.144-5.952.292c-14.164.705-28.276.979-42.458.854l-.013-2.21c-.005-.957-.01-1.913-.017-2.9l-.016-2.873q-.018-2.948-.044-5.894c-.022-7.807.53-15.273 1.09-23.123"/><path fill="#fdfdfd" d="M798 480c6.633 1.961 13.236 4.013 19.832 6.095A376 376 0 0 0 831 489.937c4.857 1.367 9.552 2.982 14.25 4.813 8.144 3.163 16.46 5.68 24.819 8.211a784 784 0 0 1 23.627 7.596c6.615 2.233 13.267 4.305 19.956 6.302 3.444 1.174 6.273 2.181 9.348 4.141 1.173 2.535 1.903 4.569 2.566 7.23q.612 2.185 1.227 4.37l.606 2.235c.902 3.25 1.953 6.448 3.003 9.653l1.238 3.824 2.7 8.334a15371 15371 0 0 0 8.242 25.35l.916 2.81 3.67 11.262c3.492 10.71 6.96 21.425 10.346 32.17 2.87 9.06 5.904 18.068 8.936 27.076 1.903 5.667 3.768 11.337 5.507 17.057 2.363 7.76 4.956 15.441 7.543 23.129 2.94 8.737 5.82 17.477 8.5 26.298 1.076 3.445 2.225 6.858 3.395 10.272l1.205 3.524q1.233 3.592 2.484 7.18l1.186 3.484 1.08 3.13C998 752 998 752 997 755a530 530 0 0 1-17.33-23.352c-8.631-12.313-17.503-24.449-26.439-36.542a1887 1887 0 0 1-13.336-18.336A1698 1698 0 0 0 928 660.5c-7.28-9.854-14.448-19.786-21.604-29.73a2542 2542 0 0 0-18.583-25.52 1320 1320 0 0 1-14.266-19.676c-4.587-6.45-9.24-12.851-13.878-19.264a4813 4813 0 0 1-4.896-6.79 2568 2568 0 0 0-18.542-25.414A1663 1663 0 0 1 824.5 518a2118 2118 0 0 0-13.937-19.125l-1.72-2.332-1.652-2.238-1.593-2.161a344 344 0 0 0-3.34-4.405l-1.668-2.169-1.508-1.937C798 482 798 482 798 480M471 374c24.664 6.589 48.814 14.867 73 23q9.404 3.163 18.813 6.313l2.303.77c9.782 3.272 19.59 6.4 29.48 9.33 9.108 2.73 18.073 5.867 27.035 9.037 5.75 2.02 11.49 3.908 17.361 5.546 7.137 1.993 14.09 4.402 21.07 6.879 9.53 3.35 19.086 6.411 28.83 9.082 5.705 1.584 11.172 3.495 16.68 5.658 7.307 2.818 14.801 5.011 22.294 7.279 8.571 2.601 17.07 5.378 25.559 8.237 7.028 2.364 14.08 4.634 21.156 6.848A822 822 0 0 1 793 478c-1 2-1 2-4.316 3.184a417 417 0 0 1-4.246 1.253c-4.78 1.413-9.45 2.928-14.11 4.713-5.237 1.912-10.577 3.536-15.89 5.225-7.558 2.413-15.112 4.827-22.625 7.375a280 280 0 0 1-12.503 3.901 416 416 0 0 0-20.67 6.497l-2.342.802a1651 1651 0 0 0-9.474 3.273c-2.35.82-4.703 1.624-7.058 2.425l-2.147.764c-3.913 1.318-6.677 1.992-10.619.588-1.814-1.056-1.814-1.056-3.496-2.371l-1.92-1.474-2.021-1.592q-2.157-1.659-4.317-3.313l-2.172-1.672c-2.939-2.236-5.935-4.384-8.949-6.515l-3.434-2.438-1.788-1.27c-9.803-6.982-19.533-14.066-29.228-21.197a1879 1879 0 0 0-14.425-10.47 1914 1914 0 0 1-19-13.875 1333 1333 0 0 0-19.68-14.27c-11.235-7.991-22.371-16.117-33.461-24.31-9.113-6.724-18.302-13.343-27.5-19.95C474.807 378.339 474.807 378.339 471 375zM897.696 370.638q3.652.005 7.304-.006 7.847-.002 15.695.1c7.564.097 15.127.128 22.692.143 12.274.026 24.548.106 36.822.22a7187 7187 0 0 0 37.984.255l11.069.046c30.58.124 61.159.337 91.738.604-2.16 2.16-3.267 2.563-6.129 3.445l-2.596.812-2.837.868-6.067 1.895-3.192.99a2138 2138 0 0 0-15.179 4.803l-3.098.988c-9.147 2.93-18.25 5.983-27.355 9.043-7.834 2.63-15.672 5.148-23.623 7.395-6.265 1.797-12.375 3.994-18.511 6.185-5.669 2.008-11.346 3.753-17.136 5.38-7.856 2.27-15.556 5.01-23.277 7.696-17.185 5.978-17.185 5.978-24.875 8.125-8.21 2.31-16.222 5.127-24.253 7.99a325 325 0 0 1-18.114 5.81c-7.957 2.3-15.808 4.856-23.653 7.509-3.906 1.32-7.816 2.628-11.726 3.937l-2.392.801c-11.424 3.82-22.895 7.493-34.367 11.165a3014 3014 0 0 0-10.893 3.526l-6.79 2.2-3.1 1.014c-4.598 1.484-9.02 2.83-13.837 3.423a192 192 0 0 1 13.102-18.96c4.351-5.578 8.43-11.331 12.52-17.102 2.544-3.576 5.118-7.131 7.69-10.688l3.336-4.613 1.683-2.327q2.45-3.394 4.896-6.79a2698 2698 0 0 1 17.023-23.395l1.642-2.23a191 191 0 0 1 3.265-4.297c1.936-2.58 1.936-2.58 3.319-5.634 6.972-12.561 18.23-10.578 31.22-10.326M794 482h1c.304 16.777.533 33.553.674 50.332.066 7.791.158 15.581.307 23.372q.197 10.19.242 20.38c.017 3.597.056 7.189.151 10.783.602 23.631.602 23.631-4.201 29.06-3.075 2.685-6.46 4.39-10.173 6.073a98 98 0 0 0-4.355 3.145q-1.914 1.336-3.832 2.668-2.183 1.528-4.364 3.058l-2.221 1.558c-10.843 7.644-21.522 15.515-32.186 23.406a778 778 0 0 1-15.73 11.29c-6.168 4.32-12.222 8.768-18.23 13.31-5.658 4.27-11.395 8.424-17.151 12.562a1601 1601 0 0 0-16.681 12.19 1318 1318 0 0 1-19.676 14.266 1966 1966 0 0 0-12.324 8.86l-2.282 1.649-4.623 3.343q-3.552 2.567-7.107 5.133A6257 6257 0 0 0 597 756c0-3.384.442-3.971 2.387-6.598l1.574-2.15 1.726-2.314 3.61-4.915 1.873-2.536c2.25-3.057 4.468-6.137 6.683-9.22 5.579-7.763 11.233-15.47 16.914-23.16 6.142-8.322 12.19-16.711 18.233-25.107 6.682-9.285 13.389-18.55 20.188-27.75a1334 1334 0 0 0 14.269-19.68c7.991-11.235 16.117-22.371 24.31-33.461 6.142-8.323 12.19-16.713 18.233-25.109a2972 2972 0 0 1 21.767-29.892c5.597-7.585 11.117-15.224 16.624-22.874 3.231-4.486 6.47-8.966 9.708-13.447a9952 9952 0 0 0 10.387-14.402l3.465-4.813 1.565-2.17 1.383-1.922C793 483 793 483 794 482M794 137h1v339c-5.621-5.621-5.621-5.621-7.656-8.574l-1.388-1.994-1.456-2.12-3.195-4.582-1.654-2.373a926 926 0 0 0-8.026-11.232l-1.627-2.25c-4.551-6.283-9.155-12.527-13.765-18.767-6.142-8.323-12.19-16.713-18.233-25.108l-6.937-9.625-1.575-2.188-1.515-2.101-1.465-2.06c-1.498-2.064-1.498-2.064-3.255-4.045-2.979-3.524-4.235-5.111-4.331-9.856.443-2.004.443-2.004 1.078-4.125l.682-2.34c.803-2.574 1.675-5.115 2.568-7.66l1.93-5.648.952-2.78c1.142-3.383 2.198-6.784 3.243-10.197 2.363-7.636 4.86-15.226 7.375-22.812l1.216-3.688 1.143-3.434 1.03-3.103C741 301 741 301 742 300c.262-1.33.49-2.668.703-4.008 1.362-7.08 3.838-13.78 6.233-20.56 1.382-3.916 2.742-7.84 4.1-11.764l.802-2.318a345 345 0 0 0 5.35-16.913c2.531-8.794 5.538-17.398 8.571-26.03 2.25-6.44 4.313-12.866 6.147-19.435 2.225-7.757 4.944-15.353 7.594-22.972 3.435-9.877 6.776-19.746 9.598-29.82.878-3.095 1.861-6.136 2.902-9.18"/><path fill="#f9f9f9" d="M1477 836c10 6.017 18.689 13.966 23 25l1.082 2.723c2.577 9.201 2.138 21.629-2.082 30.277-6.69 11.41-15.902 20.984-28.969 24.492-11.699 1.96-23.245 1.468-33.453-5.035-9.929-7.28-18.413-17.092-20.578-29.457-1.179-12.09-.161-22.622 7.188-32.687 5.839-6.963 12.264-12.973 20.812-16.313l2.723-1.082c9.14-2.56 21.712-2.2 30.277 2.082"/><path fill="#050505" d="M1078.164 1148.773c9.764-.588 17.848 3.142 25.086 9.54L1107 1162l1-11h9q.106 13.77.155 27.541c.016 4.264.037 8.528.071 12.792q.047 6.186.059 12.371.008 2.347.032 4.693c.116 11.542.219 23.569-7.583 32.857-6.987 7.034-14.714 11.196-24.734 11.746l-3.2.195c-10.837.358-20.507-1.457-29.05-8.488-4.318-4.212-7.933-8.893-9.75-14.707 3.482-.578 6.533-.742 10 0 2.308 2.054 4.051 4.314 5.973 6.73 4.397 4.923 9.69 6.168 16.093 6.641 9.138.398 17.84.112 25.02-6.207 5.466-5.823 7.203-11.022 7.039-19.039l-.055-3.492-.07-2.633-1.434 1.39c-8.944 8.3-17.807 11.005-29.957 10.82-10.197-.823-18.506-5.636-25.421-13.023-8.068-9.77-9.1-20.923-8.188-33.187.863-3.363 2.191-6.05 4-9l1.32-2.332c5.99-9.87 14.64-14.658 25.68-17.418a245 245 0 0 0 5.164-.477"/><path fill="#fcfcfc" d="M306 1123h9v101h-9l-1-11-3.875 3.75c-7.249 6.46-16.008 9.645-25.758 9.46-11.018-.98-19.509-4.913-27.117-12.898-8.693-10.84-9.728-21.824-8.25-35.312.815-3.768 1.978-6.73 4-10l1.285-2.121c6.023-8.875 14.007-13.705 24.153-16.566 11.418-1.393 21.334.536 30.562 7.687l5 6z"/><path fill="#fefefd" d="m303.188 863.563 2.083-.004c12.891.03 24.792 1.046 35.08 9.695 8.474 8.975 9.102 16.968 8.922 28.766-.322 8.598-3.26 14.928-9.168 21.164-10.511 9.068-24.582 11.974-38.132 11.914l-3.897-.01-4.014-.025q-2.048-.008-4.095-.014-4.984-.018-9.967-.049l-.076-3.725q-.144-6.939-.296-13.878-.065-2.985-.125-5.97c-.208-10.182-.43-20.328-1.298-30.48-.346-4.98-.287-9.958-.205-14.947 8.36-2.134 16.593-2.44 25.188-2.437"/><path fill="#040404" d="M530.879 1158.527c7.423 6.814 11.005 15.56 12.121 25.473v5h-65c2.297 12.689 2.297 12.689 10.29 21.855 8.028 5.506 15.648 6.41 25.284 4.684 7.684-2.28 13.818-7.011 18.426-13.539 3.375.547 5.082 1.055 8 3-2.89 8.14-8.422 13.52-16 17.5-4.851 2.203-8.69 3.326-14 3.5l-2.137.113c-10.992.365-20.33-2.266-28.648-9.71-8.365-9.05-11.76-20.535-11.457-32.65.883-10.047 5.367-19.457 12.969-26.155 15.949-11.887 34.724-11.612 50.152.93"/><path fill="#fcfcfc" d="M1095.332 1161.379c6.08 3.694 10.027 9.071 12.668 15.621.442 3.135.465 6.213.438 9.375l.06 2.46c-.006 7.429-2.35 13.563-7.623 18.915-7.357 6.783-15.453 7.98-25.242 7.703-7.692-.96-13.69-4.492-18.633-10.453-5.77-7.914-6.924-14.3-6-24 2.407-9.193 6.86-14.512 14.684-19.668 9.555-5.495 19.856-4.52 29.648.047"/><path fill="#040404" d="M306 1123h9v101h-9l-1-11-3.875 3.75c-7.249 6.46-16.008 9.645-25.758 9.46-11.018-.98-19.509-4.913-27.117-12.898-8.693-10.84-9.728-21.824-8.25-35.312.815-3.768 1.978-6.73 4-10l1.285-2.121c6.023-8.875 14.007-13.705 24.153-16.566 11.418-1.393 21.334.536 30.562 7.687l5 6zm-51 45c-5.864 8.735-7.008 16.509-6 27 1.191 3.706 2.855 6.764 5 10l2.063 3.25c4.597 5.028 11.418 8.21 18.07 9.23 9.327.25 16.005-1.604 23.18-7.605 7.058-6.872 9.047-12.626 9.25-22.312-.095-8.474-1.867-14.402-7.583-20.836-6.649-6.452-12.81-8.781-21.98-9.165-8.8.258-16.156 3.823-22 10.438"/><path fill="#090909" d="M1327.875 1154.625c8.438 9.43 9.448 21.524 9.32 33.633l-.008 3.118c-.011 3.25-.036 6.5-.062 9.749q-.016 3.328-.027 6.656-.035 8.11-.098 16.219h-9l-.06-4.172c-.076-5.138-.165-10.276-.257-15.414q-.058-3.327-.105-6.654c-.046-3.2-.104-6.4-.164-9.6l-.035-2.974c-.121-11.36-.121-11.36-5.191-21.123l-1.458-1.653c-5.443-4.436-12.073-4.086-18.73-3.41-6.565 1.752-11.371 6.378-15 12-2.856 6.363-3.465 11.694-3.512 18.625l-.054 2.992a1443 1443 0 0 0-.121 9.383q-.05 3.197-.104 6.395-.126 7.802-.209 15.605h-10v-73h10l1 11 2.938-3.187c12.029-12.03 26.536-12.328 40.937-4.188"/><path fill="#111112" d="M1477 836c10 6.017 18.689 13.966 23 25l1.082 2.723c2.577 9.201 2.138 21.629-2.082 30.277-6.69 11.41-15.902 20.984-28.969 24.492-11.699 1.96-23.245 1.468-33.453-5.035-9.929-7.28-18.413-17.092-20.578-29.457-1.179-12.09-.161-22.622 7.188-32.687 5.839-6.963 12.264-12.973 20.812-16.313l2.723-1.082c9.14-2.56 21.712-2.2 30.277 2.082m-48.812 17.125c-6.215 8.512-8.756 19.474-7.188 29.875 3.34 11.413 9.67 20.892 20 27 10.38 4.512 20.56 6.02 31.25 1.875 9.817-4.549 16.16-10.198 20.938-20l1.542-3.133c4.187-9.042 2.717-18.486-.394-27.687-3.98-9.1-10.645-14.945-19.461-19.242l-3.133-1.543c-15.796-7.313-32.942.627-43.554 12.855"/><path fill="#070707" d="M720.188 1150.688c4.283 1.864 7.431 4.11 10.812 7.312-.564 3.27-1.5 4.826-4 7-3.483-1.258-6.074-2.757-9-5-3.71-1.237-7.144-1.564-11-1-2.81 1.794-4.51 3.019-6 6-.675 4.147-.136 5.784 2.125 9.375 3.577 3.867 8.045 6.152 12.613 8.64 6.873 3.776 13.852 8.152 16.262 15.985.867 7.134.33 13.115-4 19-5.283 5.283-10.717 8.09-18.187 8.563-7.21-.18-14.35-3.371-19.657-8.262L689 1217c1.27-3.914 2.512-5.79 6-8l4.297 3.71c4.098 3.103 7.39 3.723 12.45 3.614 3.483-.501 5.617-2.073 8.253-4.324 2.015-3.022 2.337-3.917 2.438-7.375l.12-2.273c-.848-3.574-2.786-5.006-5.558-7.352a123 123 0 0 0-6.812-3.875c-15.21-8.41-15.21-8.41-17.79-17.086-1.227-6.282-.64-11.393 2.602-17.039 7.487-7.867 14.825-10.173 25.188-6.312"/><path fill="#030303" d="M1446 851c22.152 0 22.152 0 27.938 4.063 2.746 3.91 3.49 7.181 3.062 11.937-2.145 4.454-4.51 6.928-9 9h-3l1.193 1.912a8150 8150 0 0 1 5.307 8.525l1.879 3.01 1.777 2.862 1.65 2.65C1478 897 1478 897 1478 898c-3.168.52-3.168.52-7 0-2.347-2.446-3.773-5.313-5.312-8.312l-2.551-4.676-1.103-2.11c-1.121-2.13-1.121-2.13-3.034-4.902l-8-1v21h-5z"/><path fill="#fafafa" d="M518.5 1160.563c6.15 3.468 10.817 7.816 13.5 14.437v5h-53c1.21-7.265 3.525-12.159 9.293-16.875 9.38-6.365 19.727-7.494 30.207-2.562"/><path d="M882 1151h9v73h-9z"/><path fill="#21202e" d="M874 370h253v2c-2.875.822-5.41 1.12-8.397 1.107l-2.663-.004-2.912-.02-3.104-.01q-5.164-.021-10.327-.051l-7.391-.03q-7.965-.031-15.928-.071-11.514-.058-23.029-.105-18.681-.078-37.362-.168-18.148-.087-36.295-.166l-2.26-.01-11.223-.048Q919.554 372.22 873 372z"/><path fill="#1c1a2f" d="M795 131h2v347l3 1-2 1-1 131h-1V481h-2v-3l-2-1 2-2v2h2V136h-2z"/><path fill="#f5f5f5" d="m1451 856 7.188-.25 2.235-.11c3.522-.06 5.488.306 8.522 2.126 2.134 2.32 2.76 3.143 2.743 6.234-.258 3.212-.627 3.928-2.813 6.5-5.237 2.898-12.173 1.715-17.875 1.5z"/><path fill="#090909" d="M887.063 1120.438c2.937.562 2.937.562 5.312 2.124 2.248 3.373 2.193 5.463 1.625 9.438-1.625 2.438-1.625 2.438-4 4-3.32.484-5.264.338-8.312-1.062-2.56-2.94-2.754-5.086-2.688-8.938 2.43-3.462 3.878-4.794 8.063-5.562"/><path fill="#1e1d33" d="M795 131h2v39h-1v-34h-2z"/><path fill="#383743" d="M977 651c3.086 1.543 3.285 4.136 4.357 7.291l.83 2.521.866 2.487.802 2.408.74 2.202c.457 2.361.152 3.828-.595 6.091-2.315-3.472-3.41-6.992-4.625-10.937l-.695-2.17c-1.085-3.484-1.68-6.212-1.68-9.893"/><path fill="#2c2b35" d="M1001 775c4.637 1.522 7.934 4.057 11.688 7.063 3.961 3.263 3.961 3.263 8.312 5.937l1-2c1 1 1 1 1.063 3.563L1023 792a281 281 0 0 1-15.5-10.75l-3.094-2.297C1002 777 1002 777 1001 775"/><path fill="#41404d" d="M577 407c5.65.601 10.662 2.075 16 4l-1 2c-5.114-1.068-10.072-2.231-15-4z"/><path fill="#2c2b3a" d="m619 636 2 1a932 932 0 0 1-1.375 4.25l-.773 2.39c-.804 2.226-1.75 4.27-2.852 6.36-1.371-3.69-.6-5.709.938-9.25l1.152-2.703z"/><path fill="#252437" d="M729 298c1.475 3.836.545 6.292-1 10a124 124 0 0 1-3 4q.428-2.377.875-4.75l.492-2.672c.601-2.447 1.413-4.384 2.633-6.578"/><path fill="#3e3d49" d="M797 97c2.679 1.34 2.75 2.517 3.688 5.313l.824 2.363c.526 2.507.306 3.925-.512 6.324-2.097-3.146-2.52-5.015-3.125-8.687l-.508-3.012z"/><path fill="#403f4e" d="M981 664h2l2 9-2 1c-1.316-3.62-2-6.096-2-10"/><path fill="#0d0c14" d="m793 475 1 2 2.5.5 2.5.5 1 2-6 1v-3l-2-1z"/><path fill="#2d2c3b" d="M570 786h3c-.25 1.875-.25 1.875-1 4-2.062 1.25-2.062 1.25-4 2z"/><path fill="#34334e" d="M728 333c1.35 4.05.62 6.792 0 11l-2-2c.543-6.087.543-6.087 2-9"/></svg>